<svg xmlns="http://www.w3.org/2000/svg" viewBox="0 0 64 64" fill="none">
  <defs>
    <linearGradient id="bg" x1="8" y1="6" x2="56" y2="58" gradientUnits="userSpaceOnUse">
      <stop offset="0" stop-color="#6C78E8"/>
      <stop offset="1" stop-color="#4250B3"/>
    </linearGradient>
    <linearGradient id="glow" x1="14" y1="14" x2="50" y2="50" gradientUnits="userSpaceOnUse">
      <stop offset="0" stop-color="#DFF3EC" stop-opacity="0.95"/>
      <stop offset="1" stop-color="#CFD5FF" stop-opacity="0.55"/>
    </linearGradient>
  </defs>

  <rect x="4" y="4" width="56" height="56" rx="18" fill="url(#bg)"/>
  <path d="M46 12C51.523 12 56 16.477 56 22V30.5C56 36.023 51.523 40.5 46 40.5H37.5C31.977 40.5 27.5 36.023 27.5 30.5V22C27.5 16.477 31.977 12 37.5 12H46Z" fill="url(#glow)" opacity="0.78"/>
  <circle cx="18" cy="47" r="7" fill="#BFE8DC" opacity="0.9"/>
  <path d="M18.5 24.5C18.5 19.806 22.306 16 27 16H31C35.694 16 39.5 19.806 39.5 24.5C39.5 27.172 38.267 29.556 36.339 31.112C39.062 32.58 41 35.459 41 38.79C41 44.152 36.653 48.5 31.29 48.5H26.79C21.428 48.5 17.08 44.152 17.08 38.79V38.4H23.82V38.79C23.82 40.429 25.151 41.76 26.79 41.76H31.29C32.93 41.76 34.26 40.429 34.26 38.79C34.26 37.15 32.93 35.82 31.29 35.82H27.48V29.58H30.7C32.271 29.58 33.54 28.311 33.54 26.74C33.54 25.17 32.271 23.9 30.7 23.9H27C25.398 23.9 24.1 25.198 24.1 26.8V27.12H18.5V24.5Z" fill="#FFFFFF"/>
  <path d="M42.12 26.8C47.109 26.8 51.16 30.851 51.16 35.84V39.46C51.16 44.449 47.109 48.5 42.12 48.5C37.131 48.5 33.08 44.449 33.08 39.46V35.84C33.08 30.851 37.131 26.8 42.12 26.8ZM42.12 33.06C40.588 33.06 39.34 34.308 39.34 35.84V39.46C39.34 40.992 40.588 42.24 42.12 42.24C43.652 42.24 44.9 40.992 44.9 39.46V35.84C44.9 34.308 43.652 33.06 42.12 33.06Z" fill="#243047"/>
  <path d="M33.08 30.72C33.08 25.731 37.131 21.68 42.12 21.68H45.84V27.94H42.12C40.588 27.94 39.34 29.188 39.34 30.72V33.02H33.08V30.72Z" fill="#243047"/>
</svg>